<svg xmlns="http://www.w3.org/2000/svg" width="19" height="23" viewBox="0 0 19 23"><path fill="#5774b8" d="M5.891 10.931c-1.71-2.069-1.425-5.613-1.394-5.952.11-2.554 1.247-3.77 2.18-4.337.928-.567 1.896-.654 2.389-.654h.076c.896.024 1.7.25 2.388.677.924.566 2.043 1.777 2.154 4.314.031.339.316 3.883-1.395 5.952-.776.937-1.829 1.427-3.13 1.456H9.018c-1.302-.03-2.355-.519-3.127-1.456zm.893-.855c.555.675 1.305 1.015 2.282 1.022h.044c.982-.007 1.728-.347 2.287-1.022 1.412-1.703 1.102-4.943 1.097-4.974-.004-.011-.004-.026-.004-.04-.138-3.231-2.176-3.75-3.375-3.781H9.06c-.967 0-3.228.37-3.374 3.781 0 .01-.005.024-.005.04-.004.024-.306 3.28 1.102 4.974zM18 20.414a.625.625 0 0 1-.23.3c-.134.09-3.327 2.278-8.669 2.278-5.341 0-8.534-2.183-8.668-2.278a.6.6 0 0 1-.23-.3c-.236-.64-.231-1.91-.227-2.155v-.016c.005-.037.005-.074.005-.12.026-.94.084-3.142 2.011-3.854.013-.004.027-.01.044-.014 2.012-.548 3.668-1.785 3.686-1.798.271-.209.644-.137.835.157.19.29.125.69-.146.891-.076.054-1.843 1.38-4.055 1.988-1.034.397-1.15 1.582-1.181 2.669 0 .044-.004.081-.004.119-.01.425.022 1.09.093 1.47.724.44 3.56 1.958 7.833 1.958 4.29 0 7.11-1.512 7.829-1.951.07-.381.098-1.045.093-1.469-.004-.042-.004-.08-.004-.12-.031-1.09-.147-2.273-1.182-2.672-2.211-.61-3.978-1.93-4.054-1.989a.667.667 0 0 1-.146-.891.573.573 0 0 1 .835-.157c.017.016 1.682 1.25 3.685 1.8.013.005.031.009.044.015 1.928.706 1.985 2.908 2.012 3.852 0 .043.005.081.005.12v.017c.004.245.009 1.516-.214 2.15z"/></svg>