<svg xmlns="http://www.w3.org/2000/svg" width="20" height="24" viewBox="0 0 20 24"><path fill="#5774b8" d="M19.572 18.148c.427.56.611 1.183.538 1.803-.073.617-.394 1.178-.93 1.635-.234.198-.47.385-.702.562-.339.265-.66.515-.948.793-.006.012-.017.018-.022.025-.829.73-1.81 1.022-2.921.883-.096-.013-.202-.032-.302-.049-1.636-.318-3.036-1.15-4.078-1.834-2.723-1.82-5.013-4.199-6.81-7.075C1.917 12.505.992 10.342.47 8.064.26 7.132.006 5.727.294 4.284a3.685 3.685 0 0 1 1.318-2.183L3.45.599l.01-.011C3.998.173 4.595-.01 5.182.063c.586.076 1.114.401 1.524.941.277.337.542.695.794 1.044.126.177.26.357.391.526l1.152 1.533c.885 1.17.725 2.526-.409 3.443-.151.123-.303.254-.454.373-.4.333-.812.674-1.25.995.214.71.539 1.43 1.047 2.288 1.053 1.739 2.202 3.126 3.514 4.24.129.112.283.217.445.33.112.077.23.16.347.246l1.705-1.376c.546-.445 1.144-.633 1.735-.563.597.078 1.127.421 1.534.982zm-1.035.824l-2.324-3.086-.009-.009c-.129-.188-.35-.412-.649-.455-.303-.034-.587.136-.77.284l-1.847 1.496c-.091.075-.372.308-.771.252a.996.996 0 0 1-.462-.187c-.018-.008-.035-.028-.053-.041a6.596 6.596 0 0 0-.445-.322 7.062 7.062 0 0 1-.552-.41c-1.423-1.207-2.666-2.705-3.793-4.575l-.004-.005c-.617-1.054-1.002-1.92-1.242-2.821l-.009-.049c-.053-.294-.08-.724.384-1.103.006-.008.016-.012.027-.018.465-.334.896-.687 1.351-1.06.156-.122.308-.25.464-.38.573-.46.63-.953.183-1.544L6.865 3.415c-.134-.187-.27-.366-.4-.545-.256-.353-.5-.682-.76-1-.004-.01-.008-.014-.012-.019-.135-.179-.358-.4-.66-.44-.246-.03-.51.06-.774.263L2.418 3.163c-.448.364-.721.82-.839 1.397-.18.903-.13 1.888.17 3.192.484 2.125 1.357 4.157 2.754 6.416 1.694 2.708 3.854 4.952 6.414 6.664.937.621 2.196 1.366 3.613 1.645.071.012.148.02.22.031.75.095 1.353-.083 1.902-.562.341-.328.697-.608 1.046-.878.232-.182.447-.35.659-.534-.005.004-.005 0 0 0 .553-.466.615-.989.18-1.562z"/></svg>